<svg id="Layer_1" data-name="Layer 1" xmlns="http://www.w3.org/2000/svg" xmlns:xlink="http://www.w3.org/1999/xlink" viewBox="0 0 280 300"><defs><style>.cls-1{fill:#231f20;}.cls-2{fill:url(#radial-gradient);}.cls-3{fill:url(#radial-gradient-2);}.cls-4{fill:url(#radial-gradient-3);}.cls-5{fill:url(#radial-gradient-4);}</style><radialGradient id="radial-gradient" cx="-110.05" cy="-99.95" r="0.99" gradientTransform="translate(1900.02 1797.52) scale(16.51)" gradientUnits="userSpaceOnUse"><stop offset="0" stop-color="#c0e6fa"/><stop offset="1" stop-color="#2478be"/></radialGradient><radialGradient id="radial-gradient-2" cx="-110.05" cy="-99.97" r="0.99" gradientTransform="translate(2311.27 2172.46) scale(20.26)" gradientUnits="userSpaceOnUse"><stop offset="0" stop-color="#a6ce38"/><stop offset="0.96" stop-color="#25a049"/><stop offset="1" stop-color="#25a049"/></radialGradient><radialGradient id="radial-gradient-3" cx="-110.04" cy="-99.98" r="0.99" gradientTransform="translate(2920.45 2720.31) scale(25.75)" xlink:href="#radial-gradient-2"/><radialGradient id="radial-gradient-4" cx="-110.02" cy="-99.97" r="0.99" gradientTransform="translate(3833.35 3537.47) scale(34.03)" xlink:href="#radial-gradient-2"/></defs><title>esri logo</title><path class="cls-1" d="M211.72,121.88a4.79,4.79,0,1,0,5,4.78A4.83,4.83,0,0,0,211.72,121.88Zm-70.54,14.33c-9,0-16.24,6.28-16.24,15.68s7.22,15.69,16.24,15.69a15.54,15.54,0,0,0,11.23-4.43l-4.71-4.71a9.54,9.54,0,0,1-7.26,3.17,7.75,7.75,0,0,1-8-7.1h22.78v-2C155.19,142.06,149.53,136.21,141.18,136.21Zm29,0c-6,0-12,3-12,9.65,0,11.39,16.12,6.53,16.12,12.69,0,2.37-2.8,3.43-5,3.43-3.16,0-5.15-1.55-7.08-3.66l-4.82,4.82c3,3.29,6.94,4.44,11.47,4.44,6.1,0,12.89-2.49,12.89-9.59,0-11.64-16.13-7.28-16.13-12.63,0-2.24,2.37-3.18,4.36-3.18a6.77,6.77,0,0,1,5.83,3l4.75-4.75C178.09,137.39,174,136.21,170.16,136.21Zm31.45,0a9.51,9.51,0,0,0-8.84,5.47h-.12V137h-7.47v29.88h7.47v-16a7.51,7.51,0,0,1,8-7.53,14.24,14.24,0,0,1,3.29.49l.29-7.15A9.36,9.36,0,0,0,201.61,136.21Zm6.44.74v29.88h7.47V137Zm-67.92,4.86c4.66,0,7.53,2.74,7.59,7.09H132.41C133,144.61,135.71,141.81,140.13,141.81Z"/><path class="cls-2" d="M67.11,151.38a23.14,23.14,0,1,0,23.14-23.14,23.15,23.15,0,0,0-23.14,23.14"/><path class="cls-3" d="M80.48,133.17a48.45,48.45,0,0,0-5.19.57,23.06,23.06,0,0,0-8.16,16.91c1.36,1.44,3.17,4.69,5.24,6.56.28-.12.58-.22.89-.32a17.23,17.23,0,0,1-2.65-3.48c-1-3.54.16-6.85,2.79-7.11,2.35-.24,4.37-3.74,6-6,3.42-4.72,8.67-3.94,8.4-6.3a2,2,0,0,0-2.16-1.8c-1.57,0-3.63,1-5.19,1"/><path class="cls-4" d="M74.26,156.61l-1,.28c-.28.08-.5.19-.89.32a2.48,2.48,0,0,0-1.6,2.2c-.26,2.25,1.88,4,3.68,4.53,2.28.66,2.47-.11,3.67,1.51.84,1.13,1,3.23,1.43,4.62a14,14,0,0,0,1,2.29,22.79,22.79,0,0,0,5.18,1.7c.45-2.66.25-6.26.84-7.81,1.22-3.19,1.91-4.59.26-7.88-3.63-1-4.73-1.35-8.4-2.1a8.51,8.51,0,0,0-1.63-.23,9.27,9.27,0,0,0-2.49.57"/><path class="cls-5" d="M96.76,138.16c-1.07,1.53-4.83,2-6,3.67-.94,1.35,0,4-.79,5.52a4.82,4.82,0,0,0,.26,3.4c1.45,2.11,3.85.94,5.66,1.7,2.21.92,2.47,3.48,4.3,5.36s-2.34,4.76,1.07,11.59a4.63,4.63,0,0,0,1.24,1.63,23.2,23.2,0,0,0,6-5.39c.52-3.44-.64-4.55.81-7.7a49.66,49.66,0,0,1,4.09-7.6,23.09,23.09,0,0,0-7.58-16.12,3.56,3.56,0,0,1-1.67,0,9.68,9.68,0,0,0-1.69-.16c-3.42,0-4.44,2.36-5.66,4.1"/><path class="cls-1" d="M87.61,175.93c-.77-.44-1.73-1.12-2.63-1.71a8.63,8.63,0,0,0-1,1.2,18.48,18.48,0,0,0,3.6.51m-4-2.75a49,49,0,0,1-7.39-7.39c-.61.36-1.3,1.35-2.2,1.52a4.14,4.14,0,0,1-1.38.07c-.23-.1,0-.59.31-.93a10.78,10.78,0,0,1,2-2,37,37,0,0,1-4.31-8.62,21.46,21.46,0,0,0-2,1.47,1.06,1.06,0,0,1-1.17,0,1.2,1.2,0,0,1,.21-1.94c.33-.23,1.93-1.34,2.3-1.65a46.94,46.94,0,0,1-2-8.5A22,22,0,0,1,66,146.59a1.19,1.19,0,0,1-.73,0A33.29,33.29,0,0,0,66.55,159a24.22,24.22,0,0,0,15.57,15.84,16.4,16.4,0,0,1,1.44-1.64M67.63,143.11c-.1-1.48-.22-3.51-.22-3.51a18.45,18.45,0,0,0-2,6.56,23.26,23.26,0,0,1,2.27-3m11.64-17a26,26,0,0,1,14-2.2c.56.08.52.55-.08.56l-.72,0c-4.08.06-10.08,1.36-13.19,3.12a49.48,49.48,0,0,0,.75,8,43.31,43.31,0,0,1,10.5-2.77,40.68,40.68,0,0,0-4.75-4.11,1.23,1.23,0,0,1-.46-1.07.94.94,0,0,1,1.23-.91,19.89,19.89,0,0,1,5.09-.5c9.87-.43,18.9,5.15,22.34,11.52,8.72,13.8,0,32.83-11.42,37.89-4.88,2.17-9.07,3.11-16.79,2s-14.06-4.86-19-12.81c-6.05-9.8-2.64-21.21-1.79-23.6,3.64-8.59,9.61-13.15,14.3-15.12m-10.2,10.44a26,26,0,0,0,.26,5.21A41.9,41.9,0,0,1,78.88,136a71.47,71.47,0,0,1-.77-7.8c-3.13,1.72-6.57,5.18-9.1,8.72m.52,7a52,52,0,0,0,2.16,8.71,64,64,0,0,1,9.55-5.71,70.91,70.91,0,0,1-2.1-9.05,38.46,38.46,0,0,0-9.61,6.05m3,10.69a34.69,34.69,0,0,0,4,8.51,45.36,45.36,0,0,1,8.51-5.51c-1-2.05-2.33-5.87-3.28-8.73a51.46,51.46,0,0,0-9.26,5.73m5.21,10.07a54.87,54.87,0,0,0,7.16,7.45A34.57,34.57,0,0,1,91.09,168,81.53,81.53,0,0,1,86,159.5a31,31,0,0,0-8.28,5.13m8.41,8.56A41.62,41.62,0,0,0,90,176a33.36,33.36,0,0,0,6.48-.47c-1-1.16-3.56-4.76-4.34-6a26.91,26.91,0,0,0-6,3.62M98.62,175a31.37,31.37,0,0,0,4.23-1.89,57.7,57.7,0,0,0,0-6,27.13,27.13,0,0,0-8.94,1.75A45.14,45.14,0,0,0,98.62,175m5.7-2.68a21.06,21.06,0,0,0,5.47-4.6,23.77,23.77,0,0,0-5.32-.59s0,3.25-.15,5.19m6.12-5.43a7.81,7.81,0,0,0,1.22-1.72,56.78,56.78,0,0,0,.15-7.21,32.91,32.91,0,0,0-8.76-1.93,53.51,53.51,0,0,1,1.38,9.47,31.74,31.74,0,0,1,6,1.39m3.5-9.17a1.14,1.14,0,0,1-1.07.66,48.53,48.53,0,0,1-.28,5.23,33.68,33.68,0,0,0,1.59-4.26l.38-1.45a23.53,23.53,0,0,0,.48-11.1c-1.2-6.23-3.46-8.46-4.25-9.45a37.53,37.53,0,0,0-5-2.07,32.18,32.18,0,0,1,5.34,9.89,20.16,20.16,0,0,1,2.9,1.72c.17.2.17.57-.37.57a15.46,15.46,0,0,1-2-.62,39.86,39.86,0,0,1,1.24,9.93s1.19.58,1.08.95m-4.59-22.44c-3.81-4.66-12.42-8.63-22-8a29.83,29.83,0,0,1,5.5,5.3,37.57,37.57,0,0,1,9.31.7,9.12,9.12,0,0,1-.82-1c-.27-.58.38-.7.9-.37a11.37,11.37,0,0,1,2,1.53,29.54,29.54,0,0,1,5.12,1.85m2.44,21a34.29,34.29,0,0,0-1.74-9.82,31.09,31.09,0,0,0-10.53-2,66.12,66.12,0,0,1,3,9.55,36.87,36.87,0,0,1,9.29,2.23m-8.3-21.51a44.55,44.55,0,0,0-9.45-.61,37,37,0,0,1,4.77,8.48,39.21,39.21,0,0,1,10.65,2,30.9,30.9,0,0,0-6-9.85m-16.74,22a31.38,31.38,0,0,1,14-2.77,85.6,85.6,0,0,0-3.18-9.43,36,36,0,0,0-14.07,3.52,80.27,80.27,0,0,0,3.3,8.68m14.44-.85a30.41,30.41,0,0,0-13.45,2.83,84.35,84.35,0,0,0,5.12,8.52A27.91,27.91,0,0,1,98,165.87a32.44,32.44,0,0,1,4.78-.42,48.13,48.13,0,0,0-1.6-9.54m-18.36-9.7a43.36,43.36,0,0,1,14-3.49,30.69,30.69,0,0,0-5-8.28,37.78,37.78,0,0,0-11.46,2.87,70.27,70.27,0,0,0,2.48,8.9"/></svg>